# xmcd
#
# Track frame offsets:
#	150
#	12073
#	32838
#	55908
#	76315
#	95015
#	113155
#	130083
#	142785
#	163078
#	182965
#	201555
#	221300
#	240115
#	255823
#	270303
#
# Disc length: 3968 seconds
#
# Revision: 0
# Processed by: cddbd v1.4PL0 Copyright (c) Steve Scherf et al.
# Submitted via: EasyCDDAExtractor 4.6.9.1
#
DISCID=cb0f7e10
DTITLE=Hawkey Franzén - Många varv kring solen
DYEAR=1900
DGENRE=
TTITLE0=Något jag lämnat
TTITLE1=Många varv kring solen
TTITLE2=Mr. Bojangles
TTITLE3=Kokong
TTITLE4=Vilka sånger ska jag sjunga?
TTITLE5=Öppna dörrar
TTITLE6=Så händer det ibland
TTITLE7=C´mon if you´re comin´/ Hur ska´ru ha´re
TTITLE8=Sol i februari
TTITLE9=Små hål i pappas arm
TTITLE10=Minne från en resa genom Holland
TTITLE11=Fråga dig
TTITLE12=Tid som råder nu
TTITLE13=Love, truth and confidence - Kärlek, sanning and förtroende
TTITLE14=Månen och elden
TTITLE15=Gobeläng
EXTD=
EXTT0=
EXTT1=
EXTT2=
EXTT3=
EXTT4=
EXTT5=
EXTT6=
EXTT7=
EXTT8=
EXTT9=
EXTT10=
EXTT11=
EXTT12=
EXTT13=
EXTT14=
EXTT15=
PLAYORDER=
